<svg xmlns="http://www.w3.org/2000/svg" xmlns:xlink="http://www.w3.org/1999/xlink" width="500" zoomAndPan="magnify" viewBox="0 0 375 374.999991" height="500" preserveAspectRatio="xMidYMid meet" version="1.0"><defs><g/><clipPath id="25998f0f7f"><path d="M 178 120.167969 L 215 120.167969 L 215 157 L 178 157 Z M 178 120.167969 " clip-rule="nonzero"/></clipPath><clipPath id="c5fec09ca0"><path d="M 160 171 L 197 171 L 197 207.917969 L 160 207.917969 Z M 160 171 " clip-rule="nonzero"/></clipPath></defs><g clip-path="url(#25998f0f7f)"><path fill="#000000" d="M 189.066406 136.449219 L 185.054688 130.34375 L 195.140625 140.429688 C 194.914062 140.777344 194.710938 141.132812 194.527344 141.503906 C 194.34375 141.875 194.183594 142.253906 194.046875 142.640625 C 193.90625 143.03125 193.792969 143.425781 193.703125 143.828125 C 193.609375 144.230469 193.542969 144.636719 193.5 145.046875 C 193.457031 145.457031 193.4375 145.871094 193.441406 146.28125 C 193.449219 146.695312 193.476562 147.105469 193.53125 147.515625 C 193.585938 147.925781 193.664062 148.328125 193.765625 148.730469 C 193.871094 149.128906 193.996094 149.519531 194.144531 149.90625 C 194.292969 150.289062 194.464844 150.664062 194.65625 151.03125 C 194.847656 151.394531 195.0625 151.746094 195.296875 152.085938 C 195.53125 152.425781 195.785156 152.75 196.058594 153.058594 C 196.332031 153.367188 196.625 153.660156 196.933594 153.933594 C 197.238281 154.210938 197.5625 154.464844 197.902344 154.703125 C 198.238281 154.9375 198.589844 155.15625 198.953125 155.351562 C 199.316406 155.542969 199.691406 155.71875 200.074219 155.867188 C 200.460938 156.019531 200.851562 156.144531 201.25 156.25 C 201.648438 156.355469 202.054688 156.433594 202.464844 156.492188 C 202.871094 156.546875 203.28125 156.578125 203.695312 156.585938 C 204.109375 156.59375 204.519531 156.578125 204.929688 156.535156 C 205.339844 156.496094 205.746094 156.429688 206.148438 156.339844 C 206.554688 156.25 206.949219 156.140625 207.339844 156.003906 C 207.726562 155.867188 208.109375 155.707031 208.480469 155.527344 C 208.851562 155.34375 209.207031 155.140625 209.554688 154.917969 C 209.902344 154.695312 210.234375 154.449219 210.550781 154.1875 C 210.871094 153.925781 211.171875 153.644531 211.457031 153.34375 C 211.738281 153.046875 212.007812 152.730469 212.253906 152.402344 C 212.5 152.070312 212.726562 151.726562 212.933594 151.367188 C 213.140625 151.011719 213.324219 150.644531 213.488281 150.265625 C 213.652344 149.886719 213.789062 149.496094 213.90625 149.101562 C 214.023438 148.707031 214.117188 148.304688 214.1875 147.898438 C 214.257812 147.492188 214.300781 147.082031 214.320312 146.667969 C 214.34375 146.257812 214.339844 145.84375 214.3125 145.433594 C 214.28125 145.023438 214.230469 144.613281 214.15625 144.207031 C 214.078125 143.800781 213.976562 143.402344 213.855469 143.007812 C 213.730469 142.613281 213.582031 142.230469 213.414062 141.855469 C 213.246094 141.476562 213.054688 141.113281 212.839844 140.757812 C 212.628906 140.40625 212.394531 140.066406 212.144531 139.738281 C 211.890625 139.414062 211.617188 139.101562 211.328125 138.808594 C 211.039062 138.515625 210.734375 138.238281 210.410156 137.980469 C 210.089844 137.722656 209.75 137.488281 209.402344 137.269531 C 209.050781 137.050781 208.6875 136.855469 208.316406 136.679688 C 207.941406 136.503906 207.558594 136.351562 207.167969 136.222656 C 206.773438 136.09375 206.375 135.988281 205.972656 135.90625 C 205.566406 135.824219 205.160156 135.765625 204.75 135.730469 C 204.335938 135.695312 203.925781 135.6875 203.511719 135.703125 C 203.101562 135.71875 202.691406 135.757812 202.28125 135.820312 C 201.875 135.882812 201.472656 135.96875 201.074219 136.082031 C 200.675781 136.191406 200.289062 136.328125 199.90625 136.484375 L 204.976562 144.195312 L 198.175781 137.394531 L 193.542969 132.765625 C 193.695312 132.496094 193.832031 132.21875 193.953125 131.933594 C 194.074219 131.648438 194.175781 131.359375 194.261719 131.0625 C 194.347656 130.765625 194.417969 130.464844 194.46875 130.160156 C 194.523438 129.855469 194.554688 129.546875 194.570312 129.238281 C 194.589844 128.929688 194.585938 128.621094 194.566406 128.3125 C 194.546875 128.003906 194.511719 127.699219 194.457031 127.394531 C 194.402344 127.089844 194.328125 126.789062 194.238281 126.496094 C 194.152344 126.199219 194.042969 125.910156 193.921875 125.625 C 193.796875 125.339844 193.660156 125.066406 193.503906 124.796875 C 193.351562 124.53125 193.179688 124.273438 192.996094 124.023438 C 192.8125 123.777344 192.613281 123.542969 192.402344 123.316406 C 192.1875 123.089844 191.964844 122.878906 191.730469 122.679688 C 191.492188 122.480469 191.246094 122.296875 190.988281 122.125 C 190.730469 121.957031 190.460938 121.800781 190.1875 121.660156 C 189.910156 121.519531 189.628906 121.398438 189.339844 121.289062 C 189.046875 121.183594 188.753906 121.09375 188.453125 121.019531 C 188.152344 120.949219 187.847656 120.894531 187.542969 120.855469 C 187.234375 120.816406 186.925781 120.796875 186.617188 120.796875 C 186.308594 120.792969 186 120.808594 185.695312 120.84375 C 185.386719 120.875 185.082031 120.925781 184.78125 120.996094 C 184.480469 121.066406 184.183594 121.148438 183.890625 121.253906 C 183.601562 121.355469 183.316406 121.476562 183.039062 121.613281 C 182.761719 121.746094 182.492188 121.898438 182.230469 122.066406 C 181.972656 122.234375 181.722656 122.414062 181.484375 122.609375 C 181.242188 122.804688 181.015625 123.015625 180.800781 123.238281 C 180.585938 123.457031 180.386719 123.691406 180.195312 123.9375 C 180.007812 124.183594 179.835938 124.4375 179.675781 124.703125 C 179.519531 124.96875 179.375 125.242188 179.25 125.523438 C 179.121094 125.804688 179.011719 126.09375 178.917969 126.390625 C 178.824219 126.683594 178.75 126.984375 178.691406 127.285156 C 178.632812 127.589844 178.589844 127.894531 178.566406 128.203125 C 178.542969 128.511719 178.539062 128.820312 178.550781 129.128906 C 178.5625 129.4375 178.589844 129.746094 178.640625 130.050781 C 178.6875 130.355469 178.75 130.65625 178.835938 130.957031 C 178.917969 131.253906 179.015625 131.546875 179.132812 131.832031 C 179.25 132.117188 179.382812 132.398438 179.53125 132.667969 C 179.679688 132.9375 179.839844 133.199219 180.019531 133.453125 C 180.199219 133.707031 180.390625 133.945312 180.597656 134.175781 C 180.804688 134.40625 181.023438 134.625 181.253906 134.828125 C 181.488281 135.03125 181.730469 135.222656 181.984375 135.398438 C 182.238281 135.574219 182.5 135.738281 182.773438 135.882812 C 183.046875 136.027344 183.324219 136.160156 183.613281 136.273438 C 183.898438 136.386719 184.191406 136.484375 184.492188 136.5625 C 184.789062 136.644531 185.09375 136.707031 185.398438 136.75 C 185.703125 136.796875 186.011719 136.820312 186.320312 136.832031 C 186.628906 136.839844 186.9375 136.832031 187.246094 136.804688 C 187.554688 136.78125 187.859375 136.734375 188.160156 136.675781 C 188.464844 136.613281 188.761719 136.535156 189.058594 136.4375 Z M 189.066406 136.449219 " fill-opacity="1" fill-rule="nonzero"/></g><path fill="#000000" d="M 228.367188 155.847656 C 227.730469 155.210938 227.003906 154.695312 226.195312 154.300781 C 225.382812 153.90625 224.53125 153.65625 223.632812 153.550781 C 222.738281 153.445312 221.851562 153.488281 220.96875 153.683594 C 220.089844 153.878906 219.265625 154.210938 218.496094 154.683594 C 217.726562 155.15625 217.058594 155.738281 216.488281 156.4375 C 215.914062 157.136719 215.476562 157.910156 215.164062 158.753906 C 214.855469 159.601562 214.691406 160.476562 214.675781 161.378906 C 214.660156 162.28125 214.792969 163.160156 215.074219 164.015625 L 221.179688 160 L 211.089844 170.089844 C 210.746094 169.863281 210.386719 169.660156 210.019531 169.476562 C 209.648438 169.292969 209.269531 169.132812 208.878906 168.996094 C 208.492188 168.855469 208.097656 168.742188 207.695312 168.648438 C 207.292969 168.558594 206.886719 168.492188 206.476562 168.449219 C 206.066406 168.40625 205.652344 168.386719 205.242188 168.390625 C 204.828125 168.398438 204.417969 168.425781 204.007812 168.480469 C 203.597656 168.535156 203.195312 168.613281 202.796875 168.714844 C 202.394531 168.820312 202.003906 168.945312 201.617188 169.09375 C 201.234375 169.242188 200.859375 169.414062 200.496094 169.605469 C 200.128906 169.796875 199.777344 170.011719 199.4375 170.246094 C 199.097656 170.480469 198.773438 170.734375 198.464844 171.007812 C 198.15625 171.28125 197.863281 171.574219 197.589844 171.878906 C 197.316406 172.1875 197.058594 172.511719 196.824219 172.847656 C 196.585938 173.1875 196.371094 173.539062 196.175781 173.902344 C 195.980469 174.265625 195.808594 174.640625 195.65625 175.023438 C 195.507812 175.40625 195.378906 175.800781 195.277344 176.199219 C 195.171875 176.597656 195.089844 177 195.035156 177.410156 C 194.980469 177.820312 194.945312 178.230469 194.9375 178.640625 C 194.929688 179.054688 194.949219 179.464844 194.988281 179.875 C 195.03125 180.285156 195.097656 180.695312 195.183594 181.097656 C 195.273438 181.5 195.386719 181.894531 195.523438 182.285156 C 195.660156 182.675781 195.820312 183.054688 196 183.425781 C 196.179688 183.796875 196.382812 184.152344 196.609375 184.5 C 196.832031 184.847656 197.074219 185.179688 197.339844 185.496094 C 197.601562 185.816406 197.882812 186.117188 198.179688 186.398438 C 198.480469 186.683594 198.792969 186.949219 199.125 187.199219 C 199.457031 187.445312 199.800781 187.671875 200.15625 187.878906 C 200.511719 188.085938 200.882812 188.269531 201.261719 188.433594 C 201.640625 188.59375 202.027344 188.734375 202.421875 188.851562 C 202.820312 188.96875 203.21875 189.0625 203.625 189.128906 C 204.03125 189.199219 204.441406 189.246094 204.855469 189.265625 C 205.265625 189.285156 205.679688 189.28125 206.089844 189.253906 C 206.5 189.226562 206.910156 189.175781 207.316406 189.097656 C 207.722656 189.023438 208.121094 188.921875 208.515625 188.796875 C 208.90625 188.675781 209.292969 188.527344 209.667969 188.359375 C 210.042969 188.1875 210.410156 188 210.761719 187.785156 C 211.117188 187.574219 211.457031 187.339844 211.78125 187.085938 C 212.109375 186.835938 212.417969 186.5625 212.710938 186.273438 C 213.007812 185.984375 213.28125 185.679688 213.539062 185.355469 C 213.796875 185.035156 214.035156 184.695312 214.253906 184.347656 C 214.46875 183.996094 214.667969 183.632812 214.839844 183.261719 C 215.015625 182.886719 215.167969 182.503906 215.296875 182.113281 C 215.425781 181.722656 215.535156 181.324219 215.617188 180.917969 C 215.699219 180.515625 215.757812 180.105469 215.789062 179.695312 C 215.824219 179.285156 215.832031 178.871094 215.820312 178.460938 C 215.804688 178.046875 215.765625 177.636719 215.703125 177.230469 C 215.636719 176.824219 215.550781 176.421875 215.441406 176.023438 C 215.328125 175.625 215.195312 175.234375 215.035156 174.855469 L 207.328125 179.921875 L 218.757812 168.492188 C 219.175781 168.726562 219.613281 168.921875 220.066406 169.078125 C 220.519531 169.234375 220.984375 169.351562 221.457031 169.421875 C 221.933594 169.496094 222.410156 169.527344 222.890625 169.515625 C 223.371094 169.503906 223.84375 169.449219 224.316406 169.347656 C 224.785156 169.25 225.242188 169.113281 225.6875 168.933594 C 226.132812 168.753906 226.558594 168.535156 226.964844 168.277344 C 227.371094 168.023438 227.75 167.730469 228.105469 167.40625 C 228.457031 167.082031 228.78125 166.730469 229.070312 166.347656 C 229.359375 165.964844 229.613281 165.558594 229.832031 165.132812 C 230.050781 164.703125 230.226562 164.261719 230.367188 163.800781 C 230.503906 163.339844 230.601562 162.871094 230.652344 162.394531 C 230.707031 161.917969 230.71875 161.441406 230.6875 160.960938 C 230.65625 160.480469 230.582031 160.011719 230.464844 159.542969 C 230.347656 159.078125 230.191406 158.628906 229.992188 158.191406 C 229.792969 157.753906 229.558594 157.335938 229.285156 156.941406 C 229.015625 156.546875 228.707031 156.175781 228.371094 155.835938 Z M 228.367188 155.847656 " fill-opacity="1" fill-rule="nonzero"/><g clip-path="url(#c5fec09ca0)"><path fill="#000000" d="M 185.773438 191.753906 L 189.785156 197.859375 L 184.332031 192.402344 L 179.699219 187.773438 C 179.925781 187.425781 180.128906 187.070312 180.3125 186.699219 C 180.496094 186.328125 180.65625 185.949219 180.792969 185.5625 C 180.933594 185.171875 181.046875 184.777344 181.140625 184.375 C 181.230469 183.972656 181.296875 183.566406 181.339844 183.15625 C 181.382812 182.746094 181.402344 182.332031 181.398438 181.921875 C 181.390625 181.507812 181.363281 181.097656 181.308594 180.6875 C 181.253906 180.277344 181.175781 179.875 181.074219 179.472656 C 180.972656 179.074219 180.847656 178.683594 180.695312 178.296875 C 180.546875 177.910156 180.378906 177.539062 180.183594 177.171875 C 179.992188 176.808594 179.777344 176.457031 179.542969 176.117188 C 179.308594 175.777344 179.054688 175.453125 178.78125 175.144531 C 178.507812 174.835938 178.214844 174.542969 177.910156 174.265625 C 177.601562 173.992188 177.277344 173.738281 176.941406 173.5 C 176.601562 173.261719 176.25 173.046875 175.886719 172.851562 C 175.523438 172.65625 175.148438 172.484375 174.765625 172.335938 C 174.378906 172.183594 173.988281 172.054688 173.589844 171.953125 C 173.191406 171.847656 172.785156 171.769531 172.378906 171.710938 C 171.96875 171.65625 171.558594 171.625 171.144531 171.617188 C 170.734375 171.609375 170.320312 171.625 169.910156 171.664062 C 169.5 171.707031 169.09375 171.773438 168.691406 171.863281 C 168.289062 171.949219 167.890625 172.0625 167.5 172.199219 C 167.113281 172.335938 166.730469 172.496094 166.359375 172.675781 C 165.992188 172.859375 165.632812 173.0625 165.285156 173.285156 C 164.9375 173.507812 164.605469 173.75 164.289062 174.015625 C 163.96875 174.277344 163.667969 174.558594 163.386719 174.859375 C 163.101562 175.15625 162.835938 175.472656 162.585938 175.800781 C 162.339844 176.132812 162.113281 176.476562 161.90625 176.835938 C 161.699219 177.191406 161.515625 177.558594 161.351562 177.9375 C 161.191406 178.316406 161.050781 178.707031 160.933594 179.101562 C 160.816406 179.496094 160.722656 179.898438 160.652344 180.304688 C 160.585938 180.710938 160.539062 181.121094 160.519531 181.535156 C 160.496094 181.945312 160.5 182.359375 160.53125 182.769531 C 160.558594 183.179688 160.609375 183.589844 160.6875 183.996094 C 160.761719 184.402344 160.863281 184.800781 160.988281 185.195312 C 161.109375 185.585938 161.257812 185.972656 161.425781 186.347656 C 161.59375 186.726562 161.785156 187.089844 162 187.445312 C 162.210938 187.796875 162.445312 188.136719 162.699219 188.464844 C 162.949219 188.789062 163.222656 189.101562 163.511719 189.394531 C 163.800781 189.6875 164.109375 189.964844 164.429688 190.222656 C 164.753906 190.480469 165.089844 190.714844 165.4375 190.933594 C 165.789062 191.152344 166.152344 191.347656 166.527344 191.523438 C 166.898438 191.699219 167.28125 191.851562 167.675781 191.980469 C 168.066406 192.109375 168.464844 192.214844 168.867188 192.296875 C 169.273438 192.378906 169.679688 192.4375 170.09375 192.472656 C 170.503906 192.503906 170.914062 192.515625 171.328125 192.5 C 171.738281 192.484375 172.148438 192.445312 172.558594 192.382812 C 172.964844 192.320312 173.367188 192.230469 173.765625 192.121094 C 174.164062 192.007812 174.550781 191.875 174.933594 191.71875 L 169.863281 184.007812 L 176.664062 190.804688 L 181.292969 195.4375 C 181.140625 195.707031 181.003906 195.984375 180.886719 196.269531 C 180.765625 196.554688 180.660156 196.84375 180.574219 197.140625 C 180.488281 197.4375 180.417969 197.738281 180.367188 198.046875 C 180.3125 198.351562 180.28125 198.65625 180.265625 198.964844 C 180.246094 199.273438 180.25 199.582031 180.269531 199.890625 C 180.289062 200.199219 180.324219 200.507812 180.378906 200.8125 C 180.433594 201.117188 180.503906 201.417969 180.59375 201.710938 C 180.683594 202.007812 180.789062 202.296875 180.914062 202.582031 C 181.035156 202.867188 181.175781 203.140625 181.328125 203.410156 C 181.484375 203.675781 181.65625 203.933594 181.839844 204.183594 C 182.023438 204.429688 182.222656 204.667969 182.433594 204.894531 C 182.644531 205.117188 182.871094 205.332031 183.105469 205.53125 C 183.34375 205.730469 183.589844 205.914062 183.847656 206.085938 C 184.105469 206.257812 184.375 206.410156 184.648438 206.550781 C 184.925781 206.691406 185.207031 206.8125 185.5 206.921875 C 185.789062 207.027344 186.082031 207.117188 186.382812 207.191406 C 186.683594 207.265625 186.988281 207.320312 187.296875 207.359375 C 187.601562 207.394531 187.910156 207.414062 188.21875 207.417969 C 188.53125 207.421875 188.835938 207.40625 189.144531 207.371094 C 189.453125 207.335938 189.757812 207.285156 190.058594 207.21875 C 190.359375 207.148438 190.65625 207.0625 190.949219 206.960938 C 191.242188 206.859375 191.523438 206.738281 191.804688 206.601562 C 192.082031 206.464844 192.351562 206.316406 192.609375 206.148438 C 192.871094 205.980469 193.121094 205.800781 193.359375 205.605469 C 193.597656 205.40625 193.828125 205.199219 194.042969 204.976562 C 194.257812 204.753906 194.457031 204.519531 194.648438 204.273438 C 194.835938 204.03125 195.007812 203.773438 195.167969 203.507812 C 195.324219 203.242188 195.46875 202.96875 195.59375 202.6875 C 195.722656 202.40625 195.832031 202.117188 195.925781 201.820312 C 196.019531 201.527344 196.097656 201.226562 196.15625 200.925781 C 196.214844 200.621094 196.253906 200.316406 196.28125 200.007812 C 196.304688 199.699219 196.308594 199.390625 196.296875 199.082031 C 196.285156 198.769531 196.253906 198.464844 196.207031 198.160156 C 196.160156 197.851562 196.09375 197.550781 196.011719 197.253906 C 195.929688 196.953125 195.832031 196.664062 195.714844 196.375 C 195.597656 196.089844 195.464844 195.808594 195.316406 195.539062 C 195.167969 195.269531 195.003906 195.003906 194.824219 194.753906 C 194.648438 194.5 194.453125 194.261719 194.246094 194.03125 C 194.039062 193.800781 193.820312 193.582031 193.589844 193.378906 C 193.359375 193.171875 193.117188 192.980469 192.863281 192.804688 C 192.609375 192.628906 192.34375 192.46875 192.070312 192.320312 C 191.800781 192.175781 191.519531 192.042969 191.230469 191.929688 C 190.945312 191.816406 190.652344 191.71875 190.351562 191.640625 C 190.054688 191.558594 189.75 191.496094 189.445312 191.453125 C 189.140625 191.40625 188.832031 191.378906 188.523438 191.371094 C 188.210938 191.363281 187.902344 191.371094 187.597656 191.398438 C 187.289062 191.421875 186.980469 191.464844 186.679688 191.527344 C 186.375 191.589844 186.078125 191.667969 185.785156 191.765625 Z M 185.773438 191.753906 " fill-opacity="1" fill-rule="nonzero"/>
</g><path fill="#000000" d="M 153.660156 168.199219 L 159.117188 162.746094 L 163.75 158.113281 C 164.09375 158.339844 164.453125 158.542969 164.824219 158.726562 C 165.191406 158.910156 165.570312 159.070312 165.960938 159.207031 C 166.347656 159.347656 166.746094 159.460938 167.148438 159.550781 C 167.550781 159.644531 167.957031 159.710938 168.367188 159.753906 C 168.777344 159.796875 169.1875 159.816406 169.601562 159.8125 C 170.011719 159.804688 170.421875 159.773438 170.832031 159.722656 C 171.242188 159.667969 171.644531 159.589844 172.046875 159.488281 C 172.445312 159.382812 172.835938 159.257812 173.222656 159.109375 C 173.605469 158.960938 173.980469 158.789062 174.347656 158.597656 C 174.710938 158.40625 175.0625 158.191406 175.402344 157.957031 C 175.742188 157.722656 176.066406 157.46875 176.375 157.195312 C 176.683594 156.921875 176.976562 156.628906 177.25 156.324219 C 177.523438 156.015625 177.78125 155.691406 178.015625 155.355469 C 178.253906 155.015625 178.46875 154.664062 178.664062 154.300781 C 178.859375 153.9375 179.03125 153.5625 179.183594 153.179688 C 179.332031 152.796875 179.460938 152.402344 179.566406 152.003906 C 179.667969 151.605469 179.75 151.203125 179.804688 150.792969 C 179.863281 150.382812 179.894531 149.972656 179.902344 149.5625 C 179.910156 149.148438 179.890625 148.738281 179.851562 148.328125 C 179.808594 147.914062 179.746094 147.507812 179.65625 147.105469 C 179.566406 146.703125 179.453125 146.308594 179.316406 145.917969 C 179.179688 145.527344 179.023438 145.148438 178.839844 144.777344 C 178.660156 144.40625 178.457031 144.050781 178.234375 143.703125 C 178.007812 143.355469 177.765625 143.023438 177.503906 142.707031 C 177.238281 142.386719 176.957031 142.085938 176.660156 141.800781 C 176.359375 141.519531 176.046875 141.253906 175.714844 141.003906 C 175.386719 140.757812 175.042969 140.53125 174.683594 140.324219 C 174.328125 140.117188 173.957031 139.933594 173.578125 139.769531 C 173.199219 139.609375 172.8125 139.46875 172.417969 139.351562 C 172.023438 139.234375 171.621094 139.140625 171.214844 139.070312 C 170.808594 139.003906 170.398438 138.957031 169.984375 138.9375 C 169.574219 138.917969 169.164062 138.917969 168.75 138.949219 C 168.339844 138.976562 167.929688 139.027344 167.523438 139.105469 C 167.121094 139.179688 166.71875 139.28125 166.328125 139.40625 C 165.933594 139.527344 165.546875 139.675781 165.171875 139.84375 C 164.796875 140.011719 164.429688 140.203125 164.078125 140.417969 C 163.722656 140.628906 163.382812 140.863281 163.058594 141.117188 C 162.730469 141.367188 162.421875 141.640625 162.128906 141.929688 C 161.835938 142.21875 161.558594 142.523438 161.300781 142.847656 C 161.042969 143.167969 160.804688 143.503906 160.589844 143.855469 C 160.371094 144.207031 160.175781 144.570312 160 144.941406 C 159.824219 145.316406 159.671875 145.699219 159.542969 146.089844 C 159.414062 146.480469 159.308594 146.878906 159.226562 147.285156 C 159.144531 147.6875 159.085938 148.097656 159.050781 148.507812 C 159.015625 148.917969 159.007812 149.332031 159.023438 149.742188 C 159.035156 150.15625 159.074219 150.566406 159.140625 150.972656 C 159.203125 151.378906 159.289062 151.78125 159.402344 152.179688 C 159.511719 152.578125 159.644531 152.964844 159.804688 153.347656 L 167.515625 148.28125 L 160.714844 155.078125 L 156.082031 159.710938 C 155.8125 159.558594 155.535156 159.421875 155.253906 159.300781 C 154.96875 159.183594 154.675781 159.078125 154.378906 158.992188 C 154.082031 158.90625 153.78125 158.835938 153.476562 158.785156 C 153.171875 158.730469 152.867188 158.699219 152.558594 158.679688 C 152.25 158.664062 151.9375 158.667969 151.628906 158.6875 C 151.320312 158.707031 151.015625 158.742188 150.710938 158.796875 C 150.40625 158.851562 150.105469 158.925781 149.8125 159.011719 C 149.515625 159.101562 149.226562 159.210938 148.941406 159.332031 C 148.65625 159.453125 148.382812 159.59375 148.113281 159.75 C 147.847656 159.902344 147.589844 160.074219 147.339844 160.257812 C 147.09375 160.441406 146.855469 160.640625 146.632812 160.851562 C 146.40625 161.066406 146.195312 161.289062 145.996094 161.527344 C 145.796875 161.761719 145.609375 162.007812 145.441406 162.265625 C 145.269531 162.523438 145.113281 162.792969 144.976562 163.066406 C 144.835938 163.34375 144.710938 163.625 144.605469 163.917969 C 144.496094 164.207031 144.40625 164.503906 144.335938 164.800781 C 144.261719 165.101562 144.207031 165.40625 144.167969 165.714844 C 144.132812 166.019531 144.113281 166.328125 144.109375 166.636719 C 144.105469 166.945312 144.125 167.253906 144.15625 167.5625 C 144.191406 167.871094 144.242188 168.175781 144.308594 168.476562 C 144.378906 168.777344 144.464844 169.074219 144.566406 169.367188 C 144.671875 169.65625 144.789062 169.941406 144.925781 170.21875 C 145.0625 170.496094 145.214844 170.765625 145.378906 171.027344 C 145.546875 171.285156 145.730469 171.535156 145.925781 171.777344 C 146.121094 172.015625 146.328125 172.242188 146.550781 172.457031 C 146.773438 172.671875 147.007812 172.875 147.253906 173.0625 C 147.5 173.25 147.753906 173.421875 148.019531 173.582031 C 148.285156 173.738281 148.558594 173.882812 148.839844 174.007812 C 149.121094 174.136719 149.410156 174.246094 149.707031 174.339844 C 150 174.433594 150.300781 174.507812 150.601562 174.570312 C 150.90625 174.628906 151.210938 174.667969 151.519531 174.691406 C 151.828125 174.714844 152.136719 174.722656 152.445312 174.710938 C 152.753906 174.699219 153.0625 174.667969 153.367188 174.621094 C 153.671875 174.570312 153.976562 174.507812 154.273438 174.425781 C 154.570312 174.34375 154.863281 174.242188 155.148438 174.125 C 155.4375 174.011719 155.714844 173.878906 155.988281 173.730469 C 156.257812 173.582031 156.519531 173.417969 156.773438 173.238281 C 157.023438 173.058594 157.265625 172.867188 157.496094 172.660156 C 157.726562 172.453125 157.941406 172.234375 158.148438 172 C 158.351562 171.769531 158.542969 171.527344 158.71875 171.273438 C 158.894531 171.019531 159.054688 170.757812 159.203125 170.484375 C 159.347656 170.210938 159.480469 169.929688 159.59375 169.644531 C 159.707031 169.355469 159.804688 169.0625 159.882812 168.765625 C 159.960938 168.464844 160.023438 168.164062 160.070312 167.859375 C 160.113281 167.550781 160.140625 167.242188 160.152344 166.933594 C 160.160156 166.625 160.152344 166.316406 160.125 166.007812 C 160.097656 165.703125 160.054688 165.394531 159.992188 165.09375 C 159.933594 164.789062 159.851562 164.492188 159.757812 164.199219 Z M 153.660156 168.199219 " fill-opacity="1" fill-rule="nonzero"/><g fill="#000000" fill-opacity="1"><g transform="translate(140.191944, 236.27704)"><g><path d="M 10.703125 -10.421875 L 11.125 -7.125 L 9.84375 -7.03125 L 9.15625 -9.109375 C 9.050781 -9.128906 8.925781 -9.140625 8.78125 -9.140625 C 8.632812 -9.148438 8.460938 -9.15625 8.265625 -9.15625 L 7.71875 -9.15625 C 7.625 -9.15625 7.53125 -9.148438 7.4375 -9.140625 C 7.34375 -9.140625 7.285156 -9.132812 7.265625 -9.125 C 7.265625 -9.050781 7.253906 -8.828125 7.234375 -8.453125 C 7.222656 -8.078125 7.210938 -7.625 7.203125 -7.09375 C 7.203125 -6.5625 7.203125 -6.007812 7.203125 -5.4375 L 7.203125 -4.25 C 7.203125 -3.65625 7.210938 -3.097656 7.234375 -2.578125 C 7.253906 -2.066406 7.269531 -1.65625 7.28125 -1.34375 L 8.84375 -1.03125 L 8.796875 0 L 2.671875 0 L 2.625 -1.03125 L 4.1875 -1.34375 C 4.207031 -1.65625 4.222656 -2.066406 4.234375 -2.578125 C 4.242188 -3.097656 4.25 -3.65625 4.25 -4.25 L 4.25 -5.4375 C 4.25 -6.007812 4.242188 -6.5625 4.234375 -7.09375 C 4.234375 -7.625 4.226562 -8.078125 4.21875 -8.453125 C 4.21875 -8.828125 4.210938 -9.050781 4.203125 -9.125 C 4.179688 -9.132812 4.125 -9.140625 4.03125 -9.140625 C 3.9375 -9.148438 3.84375 -9.15625 3.75 -9.15625 L 3.1875 -9.15625 C 3 -9.15625 2.816406 -9.148438 2.640625 -9.140625 C 2.460938 -9.140625 2.320312 -9.128906 2.21875 -9.109375 L 1.59375 -7 L 0.3125 -7.109375 L 0.671875 -10.421875 C 0.785156 -10.421875 0.972656 -10.414062 1.234375 -10.40625 C 1.492188 -10.394531 1.773438 -10.382812 2.078125 -10.375 C 2.378906 -10.363281 2.671875 -10.347656 2.953125 -10.328125 C 3.234375 -10.316406 3.460938 -10.3125 3.640625 -10.3125 L 7.75 -10.3125 C 7.925781 -10.3125 8.15625 -10.316406 8.4375 -10.328125 C 8.71875 -10.347656 9.007812 -10.363281 9.3125 -10.375 C 9.625 -10.382812 9.90625 -10.394531 10.15625 -10.40625 C 10.40625 -10.414062 10.585938 -10.421875 10.703125 -10.421875 Z M 10.703125 -10.421875 "/></g></g><g transform="translate(151.670458, 236.27704)"><g><path d="M 6.5 0.15625 C 5.382812 0.15625 4.390625 -0.0625 3.515625 -0.5 C 2.648438 -0.945312 1.96875 -1.554688 1.46875 -2.328125 C 0.96875 -3.109375 0.71875 -3.988281 0.71875 -4.96875 C 0.71875 -6.039062 0.960938 -6.988281 1.453125 -7.8125 C 1.953125 -8.632812 2.632812 -9.285156 3.5 -9.765625 C 4.375 -10.242188 5.367188 -10.484375 6.484375 -10.484375 C 7.578125 -10.484375 8.539062 -10.265625 9.375 -9.828125 C 10.207031 -9.390625 10.859375 -8.785156 11.328125 -8.015625 C 11.796875 -7.242188 12.03125 -6.351562 12.03125 -5.34375 C 12.03125 -4.363281 11.84375 -3.523438 11.46875 -2.828125 C 11.101562 -2.128906 10.628906 -1.554688 10.046875 -1.109375 C 9.472656 -0.671875 8.867188 -0.347656 8.234375 -0.140625 C 7.609375 0.0546875 7.03125 0.15625 6.5 0.15625 Z M 6.609375 -1.375 C 7.085938 -1.375 7.476562 -1.503906 7.78125 -1.765625 C 8.082031 -2.023438 8.300781 -2.414062 8.4375 -2.9375 C 8.582031 -3.46875 8.65625 -4.113281 8.65625 -4.875 C 8.65625 -5.75 8.554688 -6.503906 8.359375 -7.140625 C 8.160156 -7.773438 7.882812 -8.265625 7.53125 -8.609375 C 7.1875 -8.953125 6.769531 -9.125 6.28125 -9.125 C 5.613281 -9.125 5.082031 -8.816406 4.6875 -8.203125 C 4.300781 -7.585938 4.109375 -6.722656 4.109375 -5.609375 C 4.109375 -4.773438 4.210938 -4.035156 4.421875 -3.390625 C 4.640625 -2.753906 4.9375 -2.257812 5.3125 -1.90625 C 5.6875 -1.550781 6.117188 -1.375 6.609375 -1.375 Z M 6.609375 -1.375 "/></g></g><g transform="translate(164.432176, 236.27704)"><g/></g><g transform="translate(167.947801, 236.27704)"><g><path d="M 0.609375 -10.3125 L 5.84375 -10.3125 C 7.757812 -10.3125 9.253906 -9.867188 10.328125 -8.984375 C 11.398438 -8.109375 11.9375 -6.882812 11.9375 -5.3125 C 11.9375 -4.289062 11.679688 -3.378906 11.171875 -2.578125 C 10.660156 -1.773438 9.957031 -1.144531 9.0625 -0.6875 C 8.164062 -0.226562 7.140625 0 5.984375 0 L 0.609375 0 L 0.5625 -1 L 1.703125 -1.34375 C 1.742188 -1.382812 1.773438 -1.664062 1.796875 -2.1875 C 1.816406 -2.707031 1.828125 -3.347656 1.828125 -4.109375 L 1.828125 -6.21875 C 1.828125 -6.957031 1.816406 -7.597656 1.796875 -8.140625 C 1.773438 -8.679688 1.742188 -8.972656 1.703125 -9.015625 L 0.5625 -9.3125 Z M 4.796875 -9 C 4.796875 -8.9375 4.789062 -8.773438 4.78125 -8.515625 C 4.78125 -8.265625 4.773438 -7.941406 4.765625 -7.546875 C 4.765625 -7.160156 4.765625 -6.71875 4.765625 -6.21875 L 4.765625 -4.109375 C 4.765625 -3.828125 4.765625 -3.515625 4.765625 -3.171875 C 4.773438 -2.828125 4.785156 -2.5 4.796875 -2.1875 C 4.816406 -1.882812 4.835938 -1.65625 4.859375 -1.5 C 5.046875 -1.445312 5.265625 -1.40625 5.515625 -1.375 C 5.765625 -1.351562 5.992188 -1.34375 6.203125 -1.34375 C 7.046875 -1.34375 7.675781 -1.601562 8.09375 -2.125 C 8.519531 -2.644531 8.734375 -3.515625 8.734375 -4.734375 C 8.734375 -5.597656 8.640625 -6.3125 8.453125 -6.875 C 8.265625 -7.4375 8.019531 -7.875 7.71875 -8.1875 C 7.414062 -8.507812 7.085938 -8.738281 6.734375 -8.875 C 6.378906 -9.007812 6.039062 -9.078125 5.71875 -9.078125 C 5.570312 -9.078125 5.414062 -9.066406 5.25 -9.046875 C 5.09375 -9.035156 4.941406 -9.019531 4.796875 -9 Z M 4.796875 -9 "/></g></g><g transform="translate(180.727097, 236.27704)"><g><path d="M 6.5 0.15625 C 5.382812 0.15625 4.390625 -0.0625 3.515625 -0.5 C 2.648438 -0.945312 1.96875 -1.554688 1.46875 -2.328125 C 0.96875 -3.109375 0.71875 -3.988281 0.71875 -4.96875 C 0.71875 -6.039062 0.960938 -6.988281 1.453125 -7.8125 C 1.953125 -8.632812 2.632812 -9.285156 3.5 -9.765625 C 4.375 -10.242188 5.367188 -10.484375 6.484375 -10.484375 C 7.578125 -10.484375 8.539062 -10.265625 9.375 -9.828125 C 10.207031 -9.390625 10.859375 -8.785156 11.328125 -8.015625 C 11.796875 -7.242188 12.03125 -6.351562 12.03125 -5.34375 C 12.03125 -4.363281 11.84375 -3.523438 11.46875 -2.828125 C 11.101562 -2.128906 10.628906 -1.554688 10.046875 -1.109375 C 9.472656 -0.671875 8.867188 -0.347656 8.234375 -0.140625 C 7.609375 0.0546875 7.03125 0.15625 6.5 0.15625 Z M 6.609375 -1.375 C 7.085938 -1.375 7.476562 -1.503906 7.78125 -1.765625 C 8.082031 -2.023438 8.300781 -2.414062 8.4375 -2.9375 C 8.582031 -3.46875 8.65625 -4.113281 8.65625 -4.875 C 8.65625 -5.75 8.554688 -6.503906 8.359375 -7.140625 C 8.160156 -7.773438 7.882812 -8.265625 7.53125 -8.609375 C 7.1875 -8.953125 6.769531 -9.125 6.28125 -9.125 C 5.613281 -9.125 5.082031 -8.816406 4.6875 -8.203125 C 4.300781 -7.585938 4.109375 -6.722656 4.109375 -5.609375 C 4.109375 -4.773438 4.210938 -4.035156 4.421875 -3.390625 C 4.640625 -2.753906 4.9375 -2.257812 5.3125 -1.90625 C 5.6875 -1.550781 6.117188 -1.375 6.609375 -1.375 Z M 6.609375 -1.375 "/></g></g><g transform="translate(193.488815, 236.27704)"><g/></g><g transform="translate(197.00444, 236.27704)"><g><path d="M 9.140625 0.140625 C 8.773438 0.109375 8.367188 0.078125 7.921875 0.046875 C 7.472656 0.0234375 7.046875 0.0078125 6.640625 0 C 6.242188 0 5.941406 0 5.734375 0 L 0.59375 0 L 0.546875 -1 L 1.6875 -1.34375 C 1.707031 -1.394531 1.726562 -1.570312 1.75 -1.875 C 1.769531 -2.175781 1.785156 -2.523438 1.796875 -2.921875 C 1.804688 -3.328125 1.8125 -3.722656 1.8125 -4.109375 L 1.8125 -6.21875 C 1.8125 -6.632812 1.804688 -7.039062 1.796875 -7.4375 C 1.785156 -7.84375 1.769531 -8.1875 1.75 -8.46875 C 1.726562 -8.757812 1.707031 -8.9375 1.6875 -9 L 0.546875 -9.3125 L 0.59375 -10.3125 L 6.296875 -10.3125 L 6.34375 -9.28125 L 4.890625 -8.96875 C 4.878906 -8.925781 4.859375 -8.769531 4.828125 -8.5 C 4.804688 -8.226562 4.789062 -7.890625 4.78125 -7.484375 C 4.769531 -7.078125 4.765625 -6.65625 4.765625 -6.21875 L 4.765625 -4.109375 C 4.765625 -3.359375 4.769531 -2.789062 4.78125 -2.40625 C 4.789062 -2.019531 4.816406 -1.738281 4.859375 -1.5625 C 5.078125 -1.53125 5.300781 -1.507812 5.53125 -1.5 C 5.769531 -1.488281 6.050781 -1.484375 6.375 -1.484375 L 6.734375 -1.484375 C 6.929688 -1.484375 7.140625 -1.492188 7.359375 -1.515625 C 7.578125 -1.546875 7.726562 -1.570312 7.8125 -1.59375 L 8.828125 -3.640625 L 10.09375 -3.328125 Z M 9.140625 0.140625 "/></g></g><g transform="translate(207.21733, 236.27704)"><g><path d="M 0.578125 0 L 0.53125 -1 L 1.671875 -1.34375 C 1.691406 -1.382812 1.710938 -1.539062 1.734375 -1.8125 C 1.765625 -2.082031 1.785156 -2.421875 1.796875 -2.828125 C 1.804688 -3.242188 1.8125 -3.671875 1.8125 -4.109375 L 1.8125 -6.21875 C 1.8125 -6.675781 1.804688 -7.109375 1.796875 -7.515625 C 1.785156 -7.929688 1.765625 -8.273438 1.734375 -8.546875 C 1.710938 -8.828125 1.691406 -8.984375 1.671875 -9.015625 L 0.53125 -9.3125 L 0.578125 -10.3125 L 5.953125 -10.3125 L 6.015625 -9.3125 L 4.875 -9.015625 C 4.84375 -8.960938 4.816406 -8.785156 4.796875 -8.484375 C 4.785156 -8.191406 4.773438 -7.84375 4.765625 -7.4375 C 4.753906 -7.03125 4.75 -6.625 4.75 -6.21875 L 4.75 -4.109375 C 4.75 -3.722656 4.753906 -3.328125 4.765625 -2.921875 C 4.773438 -2.523438 4.785156 -2.175781 4.796875 -1.875 C 4.816406 -1.582031 4.84375 -1.40625 4.875 -1.34375 L 6.015625 -1 L 5.953125 0 Z M 0.578125 0 "/></g></g><g transform="translate(213.791548, 236.27704)"><g><path d="M 4.3125 0.15625 C 3.8125 0.15625 3.25 0.0820312 2.625 -0.0625 C 2.007812 -0.21875 1.460938 -0.425781 0.984375 -0.6875 L 0.921875 -3.484375 L 2.28125 -3.546875 L 2.9375 -1.578125 C 3.125 -1.460938 3.363281 -1.363281 3.65625 -1.28125 C 3.957031 -1.195312 4.242188 -1.15625 4.515625 -1.15625 C 4.992188 -1.15625 5.351562 -1.242188 5.59375 -1.421875 C 5.832031 -1.609375 5.953125 -1.867188 5.953125 -2.203125 C 5.953125 -2.585938 5.832031 -2.894531 5.59375 -3.125 C 5.351562 -3.363281 5.039062 -3.554688 4.65625 -3.703125 C 4.28125 -3.859375 3.875 -4.007812 3.4375 -4.15625 C 3.007812 -4.3125 2.601562 -4.503906 2.21875 -4.734375 C 1.84375 -4.972656 1.535156 -5.28125 1.296875 -5.65625 C 1.054688 -6.039062 0.9375 -6.546875 0.9375 -7.171875 C 0.9375 -7.835938 1.128906 -8.421875 1.515625 -8.921875 C 1.898438 -9.429688 2.441406 -9.828125 3.140625 -10.109375 C 3.847656 -10.390625 4.675781 -10.53125 5.625 -10.53125 C 5.875 -10.53125 6.160156 -10.503906 6.484375 -10.453125 C 6.816406 -10.410156 7.140625 -10.347656 7.453125 -10.265625 C 7.765625 -10.191406 8.035156 -10.101562 8.265625 -10 L 8.53125 -7.203125 L 7.1875 -7.140625 L 6.578125 -9.015625 C 6.242188 -9.160156 5.867188 -9.234375 5.453125 -9.234375 C 5.066406 -9.234375 4.722656 -9.128906 4.421875 -8.921875 C 4.128906 -8.710938 3.984375 -8.398438 3.984375 -7.984375 C 3.984375 -7.617188 4.109375 -7.320312 4.359375 -7.09375 C 4.609375 -6.875 4.925781 -6.679688 5.3125 -6.515625 C 5.695312 -6.359375 6.109375 -6.195312 6.546875 -6.03125 C 6.984375 -5.863281 7.394531 -5.660156 7.78125 -5.421875 C 8.175781 -5.191406 8.492188 -4.890625 8.734375 -4.515625 C 8.984375 -4.148438 9.109375 -3.679688 9.109375 -3.109375 C 9.109375 -2.472656 8.90625 -1.910156 8.5 -1.421875 C 8.101562 -0.929688 7.546875 -0.546875 6.828125 -0.265625 C 6.117188 0.015625 5.28125 0.15625 4.3125 0.15625 Z M 4.3125 0.15625 "/></g></g><g transform="translate(223.318892, 236.27704)"><g><path d="M 10.703125 -10.421875 L 11.125 -7.125 L 9.84375 -7.03125 L 9.15625 -9.109375 C 9.050781 -9.128906 8.925781 -9.140625 8.78125 -9.140625 C 8.632812 -9.148438 8.460938 -9.15625 8.265625 -9.15625 L 7.71875 -9.15625 C 7.625 -9.15625 7.53125 -9.148438 7.4375 -9.140625 C 7.34375 -9.140625 7.285156 -9.132812 7.265625 -9.125 C 7.265625 -9.050781 7.253906 -8.828125 7.234375 -8.453125 C 7.222656 -8.078125 7.210938 -7.625 7.203125 -7.09375 C 7.203125 -6.5625 7.203125 -6.007812 7.203125 -5.4375 L 7.203125 -4.25 C 7.203125 -3.65625 7.210938 -3.097656 7.234375 -2.578125 C 7.253906 -2.066406 7.269531 -1.65625 7.28125 -1.34375 L 8.84375 -1.03125 L 8.796875 0 L 2.671875 0 L 2.625 -1.03125 L 4.1875 -1.34375 C 4.207031 -1.65625 4.222656 -2.066406 4.234375 -2.578125 C 4.242188 -3.097656 4.25 -3.65625 4.25 -4.25 L 4.25 -5.4375 C 4.25 -6.007812 4.242188 -6.5625 4.234375 -7.09375 C 4.234375 -7.625 4.226562 -8.078125 4.21875 -8.453125 C 4.21875 -8.828125 4.210938 -9.050781 4.203125 -9.125 C 4.179688 -9.132812 4.125 -9.140625 4.03125 -9.140625 C 3.9375 -9.148438 3.84375 -9.15625 3.75 -9.15625 L 3.1875 -9.15625 C 3 -9.15625 2.816406 -9.148438 2.640625 -9.140625 C 2.460938 -9.140625 2.320312 -9.128906 2.21875 -9.109375 L 1.59375 -7 L 0.3125 -7.109375 L 0.671875 -10.421875 C 0.785156 -10.421875 0.972656 -10.414062 1.234375 -10.40625 C 1.492188 -10.394531 1.773438 -10.382812 2.078125 -10.375 C 2.378906 -10.363281 2.671875 -10.347656 2.953125 -10.328125 C 3.234375 -10.316406 3.460938 -10.3125 3.640625 -10.3125 L 7.75 -10.3125 C 7.925781 -10.3125 8.15625 -10.316406 8.4375 -10.328125 C 8.71875 -10.347656 9.007812 -10.363281 9.3125 -10.375 C 9.625 -10.382812 9.90625 -10.394531 10.15625 -10.40625 C 10.40625 -10.414062 10.585938 -10.421875 10.703125 -10.421875 Z M 10.703125 -10.421875 "/></g></g></g></svg>